<?xml version="1.0" encoding="utf-8"?>
<!-- Generator: Adobe Illustrator 16.0.0, SVG Export Plug-In . SVG Version: 6.00 Build 0)  -->
<!DOCTYPE svg PUBLIC "-//W3C//DTD SVG 1.1//EN" "http://www.w3.org/Graphics/SVG/1.1/DTD/svg11.dtd">
<svg version="1.1" xmlns="http://www.w3.org/2000/svg" xmlns:xlink="http://www.w3.org/1999/xlink" x="0px" y="0px" width="2884px"
	 height="1232px" viewBox="-31.5 172.5 2884 1232" enable-background="new -31.5 172.5 2884 1232" xml:space="preserve">
<g id="Layer_2">
</g>
<g id="Layer_1">
	<g>
		<path fill="#00B4DC" d="M425.13,764.806c-1.439,2.562-2.877,5.125-4.317,7.686c-54.899,0-109.809,0-164.707,0
			c-90.58,0-164.96-0.42-165.278-0.938c-0.802-1.298,1.22-30.657,3.301-47.932c4.703-39.027,15.568-80.984,30.291-116.957
			c8.458-20.657,21.823-48.327,23.328-48.295c0.658,0.013,9.84,5.13,20.404,11.372c14.671,8.659,19.185,11.838,19.064,13.427
			c-0.077,1.145-3.624,9.576-7.874,18.738c-10.564,22.771-16.571,39.176-23.732,64.813c-8.786,31.386-12.454,50.627-9.478,49.583
			c0.956-0.336,20.01-14.424,93.918-69.469c8.807-6.561,17.626-13.12,26.433-19.684c5.854,3.485,11.696,6.973,17.55,10.458
			c40.117,23.904,76.764,45.323,95.247,55.666c4.667,2.611,9.334,5.224,14.002,7.835c1.12,1.108,2.239,2.214,3.36,3.32
			c1.844,1.827,3.821,3.063,5.425,2.171c5.853,17.571,11.718,35.143,17.571,52.713c0.406,1.315,0.813,2.63,1.219,3.945
			c0.791,2.578,1.549,3.529,3.174,1.547C424.393,764.806,424.767,764.806,425.13,764.806z"/>
		<path fill="#FEFEFE" d="M255.26,805.438c55.086,0,110.172,0,165.246,0c6.513,11.44,13.025,22.88,19.526,34.318
			c10.741,18.877,24.886,43.347,31.42,54.378c6.535,11.031,11.883,20.775,11.883,21.655c0,0.879-2.417,5.69-5.361,10.692
			c-2.954,5.002-13.99,24.166-24.533,42.587c-19.218,33.594-57.018,98.938-80.981,140.02c-7.05,12.081-14.067,24.189-15.605,26.907
			c-15.507,27.467-36.679,62.908-37.854,63.358c-1.999,0.767-33.583-21.54-50.693-35.808
			c-17.307-14.427-45.597-41.942-58.698-57.102c-14.058-16.268-42.83-55.148-43.896-59.316
			c-0.363-1.417,39.755-25.489,41.094-24.659c0.505,0.311,3.459,4.36,6.568,9c8.631,12.884,23.523,32.757,31.408,41.928
			c18.527,21.57,52.032,53.368,52.747,50.067c0.187-0.866-0.44-8.901-1.395-17.858c-1.834-17.372-8.346-87.18-10.553-113.275
			c-1.131-13.281-1.098-15.944,0.197-17.12c1.779-1.631,29.718-18.213,80.598-47.847c39.347-22.921,46.969-27.55,46.354-28.163
			c-0.219-0.221-10.136-2.61-22.04-5.309c-7.216-1.637-14.43-3.273-21.646-4.907c-17.835,10.478-35.67,20.955-53.505,31.434
			c-29.42,17.29-67.824,39.826-85.34,50.084c-17.517,10.255-42.885,25.286-56.382,33.404c-13.484,8.119-24.687,14.596-24.884,14.396
			c-1.67-1.686-15.057-28.975-20.756-42.302c-21.479-50.271-33.394-101.281-37.463-160.405c-0.234-3.385-0.467-6.771-0.7-10.158
			C145.101,805.438,200.175,805.438,255.26,805.438z M152.503,852.26c-8.413-1.39-8.511-1.377-8.511,0.952
			c0,12.609,16.846,78.188,24.467,95.258c0.439,1.004,0.89,2.006,1.34,3.009c11.168-9.93,22.325-19.859,33.495-29.79
			c44.081-39.205,57.392-51.628,56.337-52.569c-0.483-0.425-5.327-1.358-10.762-2.067
			C239.523,865.824,170.81,855.279,152.503,852.26z"/>
		<path fill="#FEFEFE" d="M399.871,701.11c-10.29-29.361-14.123-38.686-15.145-39.66c-2.679-2.537-90.118-54.416-176.49-104.716
			c-23.557-13.719-43.28-25.378-43.841-25.908c-1.218-1.165,2.965-8.11,14.826-24.646c27.192-37.89,56.733-69.114,92.655-97.922
			c13.893-11.141,44.258-32.214,46.41-32.214c1.087,0,4.48,5.766,49.177,83.463c13.365,23.254,37.833,65.754,54.361,94.444
			s37.361,64.879,46.3,80.418c5.414,9.419,10.829,18.837,16.242,28.255c-2.142,3.761-4.283,7.521-6.436,11.28
			c-3.536,6.206-16.857,29.195-29.619,51.091c-7.72,13.271-15.452,26.541-23.182,39.811c-0.363,0-0.737,0-1.099,0
			c-1.46-1.83-2.933-3.66-4.393-5.492c-5.853-17.57-11.718-35.142-17.571-52.713C401.331,704.772,400.607,702.942,399.871,701.11z
			 M241.961,504.533c-4.909,5.739-8.939,10.74-8.972,11.115c-0.022,0.374,7.248,3.291,16.155,6.481
			c8.905,3.19,20.646,7.501,26.082,9.582c5.436,2.081,17.538,6.415,26.906,9.635c9.367,3.219,23.073,8.052,30.475,10.742
			c7.401,2.688,13.453,4.825,13.453,4.75c0-1.019-15.946-45.049-35.132-97.001c-1.921-5.197-3.833-10.396-5.754-15.594
			c-2.844,2.201-5.678,4.4-8.522,6.602C285.944,459.146,253.756,490.745,241.961,504.533z"/>
		<path fill="#FEFEFE" d="M354.867,354.62c30.179-15.197,71.261-30.521,102.66-38.283c31.704-7.84,54.876-11.365,94.17-14.328
			c2.471-0.186,4.942-0.372,7.413-0.559c0,8.018,0,16.034,0,24.052s0,16.034,0,24.051c-1.561,0.188-3.108,0.379-4.667,0.568
			c-2.57,0.312-8.862,0.852-14.002,1.202c-22.7,1.547-65.87,10.203-90.601,18.164c-7.853,2.528-16.001,5.084-18.121,5.679
			c-2.12,0.596-4.229,1.451-4.712,1.9c-0.824,0.785,24.501,13.142,65.113,31.766c10.563,4.848,30.09,13.947,43.379,20.222
			c8.048,3.804,16.11,7.606,24.16,11.409c0.187,25.317,0.362,50.636,0.549,75.952c0.187,25.317,0.361,50.636,0.549,75.953
			c5.216-5.763,10.421-11.523,15.638-17.286c5.217-5.763,10.433-11.523,15.639-17.286c0.011-42.765,0.011-85.53,0.011-128.297
			c0-42.765,0.012-85.53,0.012-128.296c3.382,0.238,6.775,0.478,10.158,0.716c54.788,3.864,105.106,15.09,153.362,34.21
			c17.923,7.104,49.529,21.644,49.529,22.786c0,0.33-5.503,10.127-12.234,21.769c-6.732,11.644-15.199,26.358-18.813,32.7
			c-3.613,6.343-10.642,18.449-15.627,26.905c-4.986,8.456-16.726,28.718-26.104,45.026c-9.367,16.309-20.635,35.828-25.028,43.379
			c-4.402,7.55-11.531,19.904-15.856,27.454c-4.317,7.551-14.167,24.601-21.888,37.889s-17.549,30.215-21.832,37.612
			c-2.604,4.485-5.206,8.971-7.809,13.453c-21.294,0-42.6,0-63.904,0c-21.293,0-42.599,0-63.904,0
			c-3.009-5.216-6.029-10.433-9.049-15.649c-4.974-8.606-15.342-26.521-23.04-39.81c-7.698-13.287-25.51-44.174-39.579-68.637
			c-14.079-24.462-33.736-58.562-43.697-75.775s-21.075-36.487-24.676-42.83c-3.613-6.342-10.686-18.534-15.737-27.094
			c-5.041-8.559-9.169-15.842-9.169-16.184C347.158,358.781,350.627,356.756,354.867,354.62z M643.241,354.648
			c-4.228-0.717-4.261-0.692-3.612,2.375c3.404,15.924,7.896,38.552,11.08,55.811c2.121,11.477,5.415,29.268,7.304,39.535
			c4.063,21.995,3.997,21.75,5.426,20.863c0.614-0.379,13.616-16.348,28.893-35.486c41.072-51.466,44.687-56.074,44.687-57.059
			c0-0.938-4.492-2.539-30.201-10.761C693.781,365.757,657.826,357.117,643.241,354.648z"/>
		<path fill="#FEFEFE" d="M377.16,1166.744c15.902-27.48,38.459-66.521,50.133-86.757c11.673-20.232,28.97-50.131,38.425-66.44
			c9.456-16.309,23.831-41.145,31.925-55.193c4.909-8.514,9.818-17.026,14.727-25.541c21.229,0.094,42.457,0.188,63.695,0.282
			c21.229,0.095,42.457,0.189,63.686,0.283c5.711,9.885,11.432,19.768,17.154,29.651c15.253,26.374,34.383,59.367,105.723,182.301
			c35.615,61.375,41.148,71.351,40.215,72.525c-1.943,2.426-43.125,21.57-59.949,27.86c-42.775,15.99-95.104,27.304-135.736,29.334
			c-5.031,0.254-10.072,0.504-15.101,0.747c0-8.104,0-16.21,0-24.326c0-8.104,0-16.22,0-24.325c1.01-0.011,2.009-0.021,3.021-0.032
			c8.904-0.099,39.072-3.524,52.668-5.983c27.687-5.009,72.975-17.565,78.84-21.854c1.734-1.266,1.67-1.516-0.823-3.148
			c-1.493-0.979-8.094-4.217-14.673-7.198c-6.578-2.981-20.854-9.509-31.727-14.504c-10.872-4.996-34.835-15.906-53.262-24.25
			c-11.17-5.056-22.326-10.111-33.495-15.167c-0.188-24.967-0.362-49.934-0.549-74.9c-0.188-24.97-0.362-49.936-0.55-74.902
			c-5.217,5.403-10.433,10.806-15.648,16.207c-5.217,5.403-10.434,10.806-15.649,16.209c0,42.975,0,85.948,0,128.922
			c0,42.976,0,85.951,0,128.923c-1.735,0-3.482,0-5.217,0c-15.716,0-51.044-4.777-78.049-10.554
			c-37.603-8.028-74.063-20.426-106.173-36.086c-10.269-5.008-19.538-9.785-20.591-10.608
			C348.41,1216.835,350.529,1212.783,377.16,1166.744z M424.613,1184.316c-4.481,5.74-8.17,10.544-8.203,10.679
			c-0.396,1.566,33.44,13.292,51.55,17.863c13.705,3.46,39.271,8.796,42.148,8.796c2.526,0,2.316-2.447-2.076-24.252
			c-2.108-10.519-6.809-35.188-10.444-54.817c-7.907-42.749-7.49-40.867-8.698-40.125c-1.01,0.626-29.498,36.667-46.289,58.572
			C437.187,1168.1,429.094,1178.578,424.613,1184.316z"/>
		<path fill="#00B4DC" d="M691.563,621.415c12.442-21.701,27.949-48.849,34.45-60.324c6.513-11.476,14.267-25.066,17.242-30.2
			c2.966-5.135,11.124-19.219,18.12-31.299c25.445-43.964,62.168-107.807,66.221-115.126c2.284-4.127,4.854-7.771,5.711-8.099
			c2.461-0.945,31.99,19.417,52.516,36.221c13.496,11.049,41.742,37.979,52.098,49.665c19.055,21.521,42.49,52.737,48.738,64.936
			c1.637,3.183,1.627,3.553-0.121,5.037c-2.855,2.43-36.943,21.727-38.381,21.727c-0.691,0-4.328-4.57-8.083-10.158
			c-21.316-31.736-43.697-57.433-73.305-84.148c-6.908-6.239-11.751-9.856-12.366-9.242c-0.615,0.615-0.152,7.645,1.188,17.962
			c2.799,21.65,14.309,125.856,14.309,129.567c0,2.512-3.229,4.697-31.023,20.974c-78.082,45.731-96.367,56.749-96.367,58.064
			c0,1.213,0.537,1.356,22.887,6.091c15.934,3.376,19.514,3.821,21.897,2.733c2.438-1.11,25.126-14.463,79.312-46.69
			c6.348-3.771,21.909-12.932,34.594-20.356c12.685-7.427,33.188-19.521,45.576-26.882c43.146-25.645,56.73-33.521,57.818-33.521
			c1.461,0,16.518,31.205,23.304,48.32c12.839,32.362,22.096,66.581,28.147,104.021c2.262,13.99,4.942,42.829,4.942,53.201
			c0,2.871,0,5.741,0,8.613c-54.977-0.092-109.952-0.185-164.928-0.279c-54.976-0.092-109.952-0.187-164.927-0.278
			c-1.088-1.829-2.175-3.659-3.273-5.49c-1.789-3.02-4.842-8.209-6.764-11.531s-6.217-10.733-9.544-16.473
			c-11.729-20.19-36.493-63.208-39.524-68.638c-1.681-3.02-3.064-6.265-3.075-7.214C668.94,661.649,679.11,643.117,691.563,621.415z
			 M905.041,696.718c-4.031,3.661-8.05,7.322-12.08,10.982c1.834,0.733,3.656,1.465,5.491,2.196
			c17.657,2.389,35.329,4.778,52.988,7.167c29.146,3.942,53.854,7.154,54.909,7.139c2.504-0.038,2.459-2.11-0.352-17.052
			c-5.612-29.867-20.197-79.619-23.337-79.619c-0.714,0-5.249,3.522-10.081,7.827C953.295,652.539,920.108,682.694,905.041,696.718z
			"/>
		<path fill="#FEFEFE" d="M678.12,898.236c5.052-8.456,19.175-32.794,31.386-54.087c7.402-12.903,14.805-25.807,22.207-38.711
			c54.877,0,109.754,0,164.642,0c54.876,0,109.753,0,164.631,0c0,3.123,0,6.246,0,9.366c0,30.92-9.533,83.075-22.569,123.515
			c-8.664,26.884-32.298,79.07-35.801,79.07c-1.416,0-38.02-21.771-38.843-23.094c-0.329-0.537,2.142-6.707,5.501-13.713
			c14.266-29.784,24.533-58.052,31.729-87.289c4.512-18.39,7.313-32.952,6.314-32.931c-1.461,0.03-72.822,52.388-109.117,80.067
			c-3.932,2.997-7.863,5.993-11.795,8.989c-2.658-1.542-5.315-3.083-7.973-4.625c-4.393-2.543-23.304-13.628-42.027-24.633
			c-61.467-36.128-83.377-48.739-83.848-48.266c-0.252,0.255,2.119,8.758,5.271,18.895c3.163,10.135,6.097,19.663,6.534,21.172
			c0.868,2.969,6.469,6.527,58.315,37.005c15.407,9.053,58.786,34.636,96.409,56.847c22.8,13.463,45.598,26.925,68.406,40.386
			c-0.613,0.964-1.229,1.929-1.844,2.892c-12.619,19.817-34.67,48.576-51.352,66.973c-25.303,27.889-62.346,59.638-92.293,79.113
			c-7.973,5.184-8.774,5.484-9.992,3.705c-1.945-2.854-63.553-109.213-109.271-188.631c-21.908-38.051-42.973-74.504-46.816-81.005
			s-6.994-12.678-6.994-13.728C668.93,914.47,673.069,906.693,678.12,898.236z M805.842,1018.123
			c-0.275,0.273,0.131,1.828,0.922,3.451c0.779,1.627,7.182,19.015,14.221,38.646c16.605,46.271,24.83,68.423,25.841,69.527
			c1.054,1.169,19.208-14.135,35.438-29.876c13.299-12.894,35.406-37.778,35.406-39.851c0-1.197-4.767-3.106-35.142-14.073
			c-9.665-3.489-29.433-10.625-43.929-15.858c-14.496-5.234-27.686-10.181-29.311-10.989
			C807.663,1018.289,806.115,1017.849,805.842,1018.123z"/>
		<path fill="#00B4DC" stroke="#00B4DC" stroke-miterlimit="10" d="M393.282,701.11c2.082,0,4.164,0,6.246,0
			c0.698,1.832,1.384,3.662,2.083,5.491c-1.521,0.892-3.395-0.344-5.143-2.171C395.405,703.324,394.344,702.219,393.282,701.11z"/>
		<path fill="#E3FDFF" d="M424.031,764.806c-1.625,1.982-2.384,1.031-3.174-1.547c-0.406-1.315-0.813-2.63-1.219-3.945
			C421.098,761.146,422.571,762.976,424.031,764.806z"/>
	</g>
	<g>
		<path fill="#02BADE" d="M2529.196,769.636c10.154-22.04,25.385-55.15,33.85-73.578c5.131-11.168,10.262-22.325,15.391-33.495
			c6.342,0,12.684,0,19.025,0c6.344,0,12.684,0,19.027,0c4.119,8.786,8.236,17.571,12.354,26.356
			c6.787,14.497,15.42,33.023,19.164,41.183c3.744,8.16,13.441,28.904,21.547,46.124c8.105,17.221,15,31.924,15.32,32.694
			c0.461,1.108-3.459,1.339-18.912,1.099c-6.5-0.1-12.992-0.198-19.492-0.299c-2.273-4.941-4.535-9.883-6.799-14.826
			c-2.271-4.941-4.535-9.883-6.807-14.824c-11.861-0.086-23.734-0.175-35.602-0.251c-11.869-0.089-23.738-0.176-35.605-0.265
			c-2.227,5.03-4.453,10.06-6.68,15.09c-2.227,5.019-4.453,10.048-6.678,15.076c-6.26,0-12.521,0-18.781,0s-12.52,0-18.779,0
			C2516.891,796.355,2523.043,783.004,2529.196,769.636z M2585.604,724.359c-6.158,14.332-11.223,26.435-11.256,26.883
			c-0.035,0.451,10.314,0.824,23,0.824c12.684,0,23.061-0.262,23.061-0.582c0-0.615-14.104-34.582-19.252-46.366
			c-1.65-3.777-3.305-6.852-3.68-6.841C2597.104,698.288,2591.76,710.028,2585.604,724.359z"/>
		<path fill="#FEFEFE" d="M1174.358,661.657c6.154,0,12.309,0,18.465,0c5.468,16.661,10.935,33.309,16.402,49.968
			c9.021,27.478,16.718,49.958,17.107,49.968c0.386,0,1.017-1.242,1.397-2.767c0.61-2.428,31.092-90.229,33.078-95.28
			c0.696-1.757,2.324-1.921,17.387-1.647c5.539,0.109,11.08,0.208,16.62,0.307c1.902,5.491,3.805,10.982,5.708,16.473
			c3.14,9.06,10.754,31.299,16.923,49.419c6.168,18.12,11.516,33.298,11.883,33.738c0.368,0.427,8.235-21.933,17.483-49.694
			c5.604-16.825,11.209-33.66,16.814-50.485c5.828,0,11.655,0,17.482,0c13.539,0,17.486,0.32,17.486,1.418
			c0,0.778-7.971,24.874-17.709,53.537c-9.738,28.662-20.711,61.388-24.382,72.71c-2.227,6.864-4.452,13.729-6.677,20.592
			c-6.44,0-12.881,0-19.32,0s-12.88,0-19.321,0c-4.271-12.355-8.543-24.709-12.817-37.063c-7.049-20.383-14.438-42.38-16.422-48.871
			c-1.983-6.489-3.895-11.806-4.25-11.806c-0.659,0-19.184,53.879-28.224,82.09c-1.672,5.216-3.343,10.433-5.015,15.649
			c-6.444,0-12.888,0-19.333,0c-6.443,0-12.887,0-19.332,0c-2.874-8.148-5.748-16.286-8.62-24.435
			c-10.401-29.476-41.279-121.329-41.279-122.779C1155.892,662.086,1163.496,661.657,1174.358,661.657z"/>
		<path fill="#FCFCFC" d="M1194.054,861.529c1.375,0,2.749,0,4.122,0c3.034,5.435,6.067,10.883,9.102,16.318
			c5.005,8.984,9.745,17.209,10.532,18.285c1.27,1.735,2.555-0.077,11.575-16.329c3.382-6.086,6.762-12.179,10.144-18.274
			c1.436,0,2.871,0,4.306,0c1.436,0,2.871,0,4.307,0c0,9.147,0,18.306,0,27.455c0,9.147,0,18.307,0,27.454c-1.639,0-3.277,0-4.915,0
			c-1.639,0-3.277,0-4.914,0c-0.103-5.952-0.203-11.894-0.303-17.846c-0.101-5.952-0.201-11.894-0.301-17.846
			c-2.746,4.941-5.491,9.885-8.236,14.826c-5.903,10.619-8.869,14.913-10.464,15.145c-1.823,0.262-3.693-2.297-10.284-14.058
			c-4.432-7.905-8.286-14.156-8.564-13.871c-0.279,0.275-0.593,7.843-0.697,16.804c-0.064,5.436-0.127,10.862-0.191,16.297
			c-1.557,0.11-3.112,0.219-4.667,0.341c-1.557,0.109-3.113,0.22-4.667,0.328c0-9.17,0-18.339,0-27.509c0-9.182,0-18.352,0-27.521
			C1191.309,861.529,1192.681,861.529,1194.054,861.529z"/>
		<path fill="#FDFDFD" d="M1325.289,861.737c1.555,0.122,3.11,0.231,4.667,0.341c0.099,7.775,0.197,15.562,0.296,23.337
			c0.099,7.774,0.197,15.562,0.296,23.336c4.569,0,9.138,0,13.706,0c4.569,0,9.138,0,13.706,0c0,1.285,0,2.56,0,3.845
			c0,1.284,0,2.559,0,3.843c-6.225,0-12.447,0-18.669,0c-6.225,0-12.447,0-18.669,0c0-9.17,0-18.339,0-27.521
			c0-9.17,0-18.34,0-27.509C1322.177,861.517,1323.732,861.628,1325.289,861.737z"/>
		<path fill="#FFFEFC" d="M1409.512,769.281c10.154-22.041,25.385-55.152,33.85-73.58c5.131-11.168,10.26-22.325,15.391-33.495
			c6.342,0,12.684,0,19.025,0c6.344,0,12.684,0,19.027,0c4.117,8.785,8.236,17.571,12.354,26.356
			c6.787,14.497,15.42,33.023,19.164,41.183c3.744,8.161,13.441,28.905,21.547,46.125c8.105,17.219,15.002,31.925,15.318,32.692
			c0.463,1.108-3.457,1.34-18.91,1.099c-6.5-0.099-12.992-0.198-19.492-0.297c-2.273-4.941-4.535-9.884-6.799-14.825
			c-2.271-4.941-4.535-9.884-6.809-14.825c-11.859-0.088-23.732-0.176-35.6-0.253c-11.869-0.089-23.738-0.176-35.605-0.265
			c-2.227,5.03-4.453,10.06-6.678,15.09c-2.229,5.019-4.455,10.049-6.682,15.078c-6.258,0-12.52,0-18.779,0s-12.52,0-18.78,0
			C1397.207,796,1403.361,782.645,1409.512,769.281z M1465.92,724.002c-6.158,14.331-11.223,26.434-11.256,26.884
			c-0.035,0.451,10.314,0.823,23,0.823c12.684,0,23.063-0.263,23.063-0.581c0-0.615-14.105-34.583-19.254-46.367
			c-1.65-3.777-3.305-6.852-3.68-6.841C1477.42,697.931,1472.076,709.671,1465.92,724.002z"/>
		<path fill="#FEFDFB" d="M1410.673,861.529c1.464,0,2.929,0,4.394,0c0,9.147,0,18.306,0,27.455c0,9.147,0,18.307,0,27.454
			c-1.465,0-2.93,0-4.394,0s-2.93,0-4.393,0c0-9.147,0-18.307,0-27.454c0-9.149,0-18.308,0-27.455
			C1407.743,861.529,1409.209,861.529,1410.673,861.529z"/>
		<path fill="#FBFAF8" d="M1461.719,887.885c3.748-8.6,7.498-17.209,11.248-25.808c1.639-0.109,3.273-0.219,4.91-0.33
			c1.637-0.109,3.273-0.219,4.91-0.329c2.316,5.217,4.631,10.423,6.945,15.639c3.82,8.6,9.049,20.855,11.629,27.235
			c4.371,10.818,4.547,11.663,2.67,12.54c-4.043,1.901-7.893-0.647-10.219-6.765c-0.721-1.909-1.445-3.81-2.168-5.71
			c-4.5,0-9.002,0-13.502,0c-4.502,0-9.004,0-13.504,0c-0.717,1.922-1.43,3.844-2.145,5.766c-2.127,5.723-2.189,5.766-7.217,6.096
			c-3.656,0.24-5.033-0.055-4.941-1.099C1450.408,914.341,1455.53,902.085,1461.719,887.885z M1472.908,883.493
			c-2.109,5.14-3.879,9.95-3.934,10.707c-0.072,1,2.449,1.373,9.238,1.373c5.133,0,9.334-0.274,9.334-0.615
			c0-2.207-9.271-22.392-9.955-21.679C1477.125,873.763,1475.018,878.353,1472.908,883.493z"/>
		<path fill="#FEFDFB" d="M1589.196,861.529c6.424,0,12.859,0,19.283,0c-0.107,1.372-0.229,2.745-0.34,4.118
			c-0.109,1.372-0.23,2.745-0.34,4.118c-4.666,0.098-9.334,0.208-14.002,0.307s-9.334,0.21-14,0.309c0,2.372,0,4.732,0,7.104
			c0,2.372,0,4.734,0,7.107c4.203,0,8.422,0,12.629,0c4.203,0,8.422,0,12.629,0c0,1.284,0,2.559,0,3.843c0,1.285,0,2.559,0,3.844
			c-4.207,0-8.426,0-12.629,0c-4.207,0-8.426,0-12.629,0c0,2.745,0,5.491,0,8.236c0,2.746,0,5.491,0,8.236c4.941,0,9.883,0,14.824,0
			s9.883,0,14.826,0c0,1.285,0,2.56,0,3.845c0,1.284,0,2.559,0,3.843c-6.59,0-13.18,0-19.768,0c-6.59,0-13.18,0-19.768,0
			c0-9.147,0-18.307,0-27.454c0-9.149,0-18.308,0-27.455C1576.336,861.529,1582.772,861.529,1589.196,861.529z"/>
		<path fill="#FEFEFE" d="M1623.449,661.921c39.412,0.429,43.191,0.647,51.24,2.844c9.477,2.603,14.926,5.425,23.492,12.19
			c4.348,3.448,6.6,6.468,10.213,13.782c4.359,8.774,4.678,10.06,5.148,20.689c0.563,12.608-1.01,20.208-6.139,29.685
			c-3.359,6.204-11.123,13.54-17.604,16.648c-2.502,1.208-4.557,2.559-4.568,3.02c0,0.461,7.16,11.576,15.914,24.709
			c5.314,7.961,10.619,15.913,15.934,23.874c-6.566,0.099-13.133,0.198-19.701,0.297c-6.566,0.099-13.135,0.196-19.701,0.298
			c-3.098-4.494-6.182-8.985-9.27-13.477c-5.094-7.413-11.586-17.054-14.398-21.437c-1.713-2.657-3.426-5.304-5.139-7.961
			c-5.281,0-10.576,0-15.869,0s-10.574,0-15.867,0c-0.078,2.658-0.166,5.304-0.242,7.961c-0.133,4.383-0.264,13.893-0.275,21.141
			c-0.01,4.393-0.021,8.785-0.033,13.178c-5.951,0.099-11.893,0.198-17.846,0.297c-5.951,0.108-11.893,0.21-17.846,0.309
			c0-24.755,0-49.506,0-74.25c0-24.753,0-49.507,0-74.26C1595.082,661.614,1609.258,661.768,1623.449,661.921z M1638.824,691.496
			c-7.227-0.111-14.465-0.231-21.689-0.352c0,7.929,0,15.847,0,23.775c0,7.93,0,15.848,0,23.775
			c7.225-0.12,14.463-0.24,21.689-0.352c21.393-0.362,21.754-0.405,26.828-3.382c6.203-3.645,9.125-7.511,10.85-14.341
			c1.811-7.216,0.516-14.101-3.723-19.702C1666.586,692.714,1663.676,691.913,1638.824,691.496z"/>
		<path fill="#F9FBF8" d="M1623.811,861.529c4.162,0,4.414,0.253,18.133,18.141c7.652,9.983,14.342,18.406,14.869,18.736
			c0.525,0.33,0.955-7.796,0.955-18.142c0-6.25,0-12.487,0-18.735c1.646,0,3.295,0,4.941,0c1.648,0,3.295,0,4.941,0
			c0,9.147,0,18.306,0,27.455c0,9.147,0,18.307,0,27.454c-1.57,0-3.15,0-4.723,0c-1.57,0-3.152,0-4.723,0
			c-4.555-6.029-9.113-12.059-13.672-18.074c-7.521-9.951-14.033-18.1-14.475-18.121c-0.428-0.023-0.932,8.236-1.098,18.35
			c-0.1,6.128-0.197,12.267-0.295,18.396c-1.373,0.108-2.746,0.231-4.119,0.341c-2.801,0.229-4.152-0.122-4.219-1.099
			c-0.055-0.791-0.24-13.42-0.416-28.07c-0.109-8.874-0.209-17.758-0.318-26.631C1621,861.529,1622.406,861.529,1623.811,861.529z"
			/>
		<path fill="#FEFEFE" d="M1741.735,662.075c0.891-0.341,20.031-0.396,42.555-0.121c44.928,0.549,48.607,1,61.424,7.467
			c17.967,9.071,28.268,27.444,27.014,48.178c-0.68,11.333-3.578,19.571-9.883,28.068c-3.898,5.263-14.178,13.608-18.549,15.07
			c-1.021,0.338,15.332,25.346,30.771,47.057c1.471,2.076,1.055,2.119-18.285,2.119c-6.6,0-13.201,0-19.799,0
			c-3.262-4.668-6.535-9.335-9.807-14.002c-5.395-7.698-11.895-17.089-14.432-20.866c-1.527-2.284-3.064-4.579-4.602-6.863
			c-5.303,0-10.598,0-15.891,0s-10.588,0-15.879,0c0,6.952,0,13.914,0,20.866c0,6.951,0,13.913,0,20.865c-6.041,0-12.08,0-18.121,0
			s-12.08,0-18.119,0c0-24.533,0-49.078,0-73.612C1740.133,672.716,1740.352,662.602,1741.735,662.075z M1777.196,690.969
			c-0.449,0.253-0.822,11.355-0.822,24.655c0,8.06,0,16.121,0,24.181c6.863-0.121,13.727-0.241,20.59-0.362
			c19.977-0.35,20.768-0.461,26.291-3.37c6.523-3.438,10.576-8.237,12.311-14.563c3.24-11.881-0.857-21.656-11.42-27.246
			c-3.844-2.031-6.984-2.417-25.258-3.053C1787.408,690.815,1777.645,690.704,1777.196,690.969z"/>
		<path fill="#FDFDFD" d="M1826.34,861.529c6.402,0,12.816,0,19.219,0c0,1.46,0,2.933,0,4.393c0,1.461,0,2.932,0,4.394
			c-4.756,0-9.521,0-14.277,0c-4.754,0-9.521,0-14.275,0c0,2.382,0,4.755,0,7.138c0,2.382,0,4.755,0,7.139c4.205,0,8.422,0,12.629,0
			c4.205,0,8.424,0,12.629,0c0,1.284,0,2.559,0,3.843c0,1.285,0,2.559,0,3.844c-4.205,0-8.424,0-12.629,0c-4.207,0-8.424,0-12.629,0
			c0,2.745,0,5.491,0,8.236c0,2.746,0,5.491,0,8.236c4.941,0,9.885,0,14.826,0s9.883,0,14.824,0c0,1.285,0,2.56,0,3.845
			c0,1.284,0,2.559,0,3.843c-6.588,0-13.178,0-19.766,0c-6.59,0-13.18,0-19.768,0c0-9.147,0-18.307,0-27.454
			c0-9.149,0-18.308,0-27.455C1813.524,861.529,1819.938,861.529,1826.34,861.529z"/>
		<path fill="#FCFCFC" d="M1853.246,885.688c3.371-11.387,8.313-18.362,15.648-22.106c9.279-4.732,22.359-3.612,29.828,2.548
			c1.361,1.121,2.723,2.241,4.084,3.361c-0.988,1.031-1.965,2.053-2.953,3.086c-0.979,1.032-1.967,2.053-2.955,3.085
			c-1.361-0.91-2.734-1.811-4.096-2.723c-8.379-5.535-18-4.448-24.533,2.789c-9.158,10.137-4.898,27.839,7.688,31.99
			c4.842,1.593,12.902,0.79,15.77-1.582c0.715-0.592,1.438-1.184,2.152-1.778c-0.361,0.715-0.715,1.429-1.076,2.141
			c-0.594,1.187-3.074,2.745-5.523,3.48c-3.064,0.926-4.096,1.693-3.316,2.473c0.625,0.625,1.131,2.022,1.131,5.085
			c-10.455,0-17.033-2.176-22.48-7.445c-5.105-4.942-7.918-10.929-8.742-18.637C1853.664,889.533,1853.453,887.611,1853.246,885.688
			z"/>
		
			<linearGradient id="SVGID_1_" gradientUnits="userSpaceOnUse" x1="1989.6331" y1="524.0852" x2="1987.7145" y2="532.2232" gradientTransform="matrix(1 0 0 -1 -96.2349 1437.3589)">
			<stop  offset="0" style="stop-color:#F4F7F6"/>
			<stop  offset="0.1429" style="stop-color:#F6F9F8"/>
			<stop  offset="0.4286" style="stop-color:#F8F8F8"/>
			<stop  offset="0.7143" style="stop-color:#F5F6F8"/>
			<stop  offset="1" style="stop-color:#EFF0F2"/>
		</linearGradient>
		<path fill="url(#SVGID_1_)" d="M1893.879,904.358c2.219-1.845,3.395-1.449,5.15,0.197c1.395,1.307,2.537,2.953,2.537,3.646
			c0,2.416-5.238,6.16-10.838,7.743c-1.879,0.526-3.758,1.063-5.635,1.592c0-3.063-0.506-4.46-1.131-5.085
			c-0.779-0.779,0.252-1.547,3.316-2.473c2.449-0.735,4.93-2.294,5.523-3.48C1893.164,905.787,1893.518,905.073,1893.879,904.358z"
			/>
		<path fill="#FEFEFE" d="M1891.739,724.518c4.92-27.575,24.258-50.637,50.012-59.697c25.379-8.918,57.15-6.535,78.346,5.885
			c9.785,5.733,24.072,20.778,28.959,30.486c10.971,21.833,11.145,46.299,0.473,68.089c-3.613,7.38-6.535,11.322-13.949,18.813
			c-7.994,8.081-10.904,10.2-19.799,14.439c-13.355,6.371-21.789,8.489-36.789,9.236c-28.488,1.428-51.684-7.216-68.418-25.488
			c-7.621-8.313-14.508-21.031-17.242-31.826C1891.166,745.943,1890.42,731.865,1891.739,724.518z M1929.449,723.036
			c-0.91,3.14-1.338,9.06-1.121,15.617c0.297,8.994,0.836,11.596,3.625,17.57c6.193,13.224,19.064,22.59,34.682,25.216
			c2.471,0.416,4.941,0.834,7.412,1.252c2.471-0.418,4.943-0.836,7.414-1.252c15.352-2.58,28.508-12.08,34.525-24.896
			c11.334-24.172,2.473-50.705-20.766-62.137c-7.139-3.514-7.875-3.646-20.602-3.646c-12.543,0-13.563,0.176-20.537,3.47
			C1941.551,700.171,1933.26,709.868,1929.449,723.036z"/>
		<path fill="#FCFCFC" d="M1916.414,861.529c1.646,0,3.305,0,4.953,0c-0.088,9.06-0.188,18.12-0.285,27.18
			c-0.1,9.061-0.199,18.121-0.297,27.181c-1.561,0.11-3.107,0.219-4.666,0.341c-1.563,0.109-3.109,0.22-4.668,0.328
			c0-9.17,0-18.339,0-27.509c0-9.182,0-18.352,0-27.521C1913.11,861.529,1914.756,861.529,1916.414,861.529z"/>
		<path fill="#FAFAFA" d="M1986.797,861.529c1.682,0,3.371,0,5.063,0c-0.209,5.765-0.416,11.53-0.625,17.297
			c-0.352,9.51-0.648,21.864-0.67,27.454c-0.012,3.383-0.033,6.775-0.043,10.158c-1.461,0-2.934,0-4.395,0c-1.459,0-2.932,0-4.393,0
			c0-9.147,0-18.307,0-27.454c0-9.149,0-18.308,0-27.455C1983.426,861.529,1985.106,861.529,1986.797,861.529z"/>
		<path fill="#FDFDFD" d="M2072.612,861.551c4.008,0.023,4.457,0.472,17.297,17.12c7.246,9.401,13.342,17.539,13.539,18.1
			c0.209,0.549,0.824,0.999,1.373,0.999c0.572,0,1.01-7.874,1.01-18.12c0-6.04,0-12.08,0-18.12c1.461,0,2.934,0,4.395,0
			c1.459,0,2.932,0,4.393,0c0,9.147,0,18.306,0,27.455c0,9.147,0,18.307,0,27.454c-1.373-0.011-2.746-0.021-4.119-0.032
			c-4.031-0.034-4.404-0.406-17.846-18.274c-4.58-6.072-9.146-12.157-13.727-18.24c-0.1,6.094-0.199,12.189-0.297,18.272
			c-0.109,6.096-0.209,12.179-0.309,18.274c-1.637,0-3.271,0-4.908,0c-1.648,0-3.283,0-4.92,0c0-9.147,0-18.307,0-27.454
			c0-9.149,0-18.308,0-27.455C2069.865,861.539,2071.239,861.539,2072.612,861.551z"/>
		<path fill="#FEFEFE" d="M2075.531,721.509c5.535-28.354,27.51-51.318,56.336-58.863c13.246-3.47,32.299-3.953,45.752-1.163
			c37.516,7.786,62.564,37.535,62.564,74.302c0,28.522-15.77,54.196-41.203,67.089c-20.756,10.521-51.297,12.08-74.656,3.812
			c-29.432-10.411-48.451-36-49.824-67.033C2074.213,733.338,2074.619,726.155,2075.531,721.509z M2111.772,724.803
			c-8.324,33.528,20.371,63.191,54.285,56.117c21.645-4.513,35.779-20.14,37.217-41.138c1.582-23.062-11.004-41.928-31.98-47.958
			c-8.807-2.538-24.061-1.779-32.824,1.603C2126.235,698.161,2115.155,711.187,2111.772,724.803z"/>
		<path fill="#FDFDFD" d="M2153.604,861.529c1.646,0,3.293,0,4.941,0c0,9.147,0,18.306,0,27.455c0,9.147,0,18.307,0,27.454
			c-1.648,0-3.295,0-4.941,0c-1.648,0-3.295,0-4.943,0c0-9.147,0-18.307,0-27.454c0-9.149,0-18.308,0-27.455
			C2150.309,861.529,2151.955,861.529,2153.604,861.529z"/>
		
			<linearGradient id="SVGID_2_" gradientUnits="userSpaceOnUse" x1="2265.1692" y1="538.1692" x2="2317.3586" y2="558.3457" gradientTransform="matrix(1 0 0 -1 -96.2349 1437.3589)">
			<stop  offset="0" style="stop-color:#FEFEFE"/>
			<stop  offset="0.1176" style="stop-color:#FEFEFE"/>
			<stop  offset="0.2353" style="stop-color:#FCFCF6"/>
			<stop  offset="0.4118" style="stop-color:#FAFBF7"/>
			<stop  offset="0.4706" style="stop-color:#FFFFFD"/>
			<stop  offset="0.5294" style="stop-color:#FDFDFD"/>
			<stop  offset="0.5882" style="stop-color:#F9FBF8"/>
			<stop  offset="0.7059" style="stop-color:#F8FBFA"/>
			<stop  offset="0.7647" style="stop-color:#FAF9F7"/>
			<stop  offset="0.8235" style="stop-color:#FCFCFA"/>
			<stop  offset="0.8824" style="stop-color:#FEFEFE"/>
			<stop  offset="1" style="stop-color:#FFFFFD"/>
		</linearGradient>
		<path fill="url(#SVGID_2_)" d="M2175.985,861.529c4.205,0,4.424,0.219,18.395,18.24c4.711,6.074,9.422,12.157,14.133,18.242
			c0.1-6.085,0.199-12.168,0.297-18.242c0.109-6.083,0.209-12.155,0.309-18.24c1.635,0,3.271,0,4.908,0c1.646,0,3.283,0,4.92,0
			c0,9.147,0,18.306,0,27.455c0,9.147,0,18.307,0,27.454c-1.428,0-2.846,0-4.273,0c-4.217,0-4.402-0.187-17.58-17.516
			c-7.326-9.632-13.807-17.813-14.398-18.187c-0.703-0.428-1.086,5.832-1.086,17.516c0,6.064,0,12.125,0,18.187
			c-1.648,0-3.295,0-4.943,0c-1.646,0-3.293,0-4.941,0c0-9.147,0-18.307,0-27.454c0-9.149,0-18.308,0-27.455
			C2173.139,861.529,2174.555,861.529,2175.985,861.529z"/>
		<path fill="#FEFEFE" d="M2280.367,661.657c14.924,0,15.342,0.066,17.297,2.67c1.098,1.471,13.859,21.469,28.355,44.443
			c14.496,22.963,26.707,41.654,27.148,41.523c0.428-0.122,11.826-18.022,25.334-39.767c13.496-21.744,25.873-41.631,27.498-44.202
			c0.988-1.559,1.979-3.107,2.965-4.667c5.119,0,10.236,0,15.354,0c5.129,0,10.248,0,15.363,0c0,24.709,0,49.419,0,74.128
			c0,24.71,0,49.42,0,74.129c-5.666,0-11.344,0-17.01,0s-11.334,0-17.012,0c-0.088-14.287-0.188-28.574-0.285-42.861
			c-0.1-14.288-0.188-28.565-0.285-42.853c-4.547,7.425-9.082,14.837-13.629,22.261c-7.49,12.257-17.285,28.082-21.766,35.175
			c-2.713,4.305-5.426,8.599-8.139,12.903c-2.998-0.011-5.996-0.021-8.984-0.032c-2.998,0-5.984-0.011-8.982-0.023
			c-7.324-11.595-14.639-23.192-21.963-34.779c-7.326-11.597-14.639-23.194-21.965-34.79c-0.1,14.166-0.188,28.333-0.285,42.501
			c-0.1,14.165-0.197,28.331-0.285,42.499c-5.678,0-11.346,0-17.012,0c-5.668,0-11.344,0-17.01,0c0-24.709,0-49.418,0-74.129
			c0-24.709,0-49.418,0-74.128C2270.164,661.657,2275.26,661.657,2280.367,661.657z"/>
		<path fill="#FEFDFB" d="M2297.531,861.529c6.426,0,12.859,0,19.285,0c-0.109,1.372-0.23,2.745-0.34,4.118
			c-0.111,1.372-0.232,2.745-0.34,4.118c-4.635,0.098-9.27,0.208-13.893,0.307c-9.699,0.21-14.057,0.715-14.41,1.646
			c-0.273,0.736-0.449,3.812-0.383,6.832c0.045,1.834,0.086,3.657,0.131,5.491c4.307,0.099,8.6,0.208,12.904,0.307
			c4.305,0.111,8.598,0.21,12.904,0.31c0,1.273,0,2.548,0,3.81c0,1.273,0,2.536,0,3.811c-4.207,0-8.424,0-12.629,0
			c-4.207,0-8.426,0-12.629,0c0,2.735,0,5.47,0,8.205c0,2.734,0,5.467,0,8.201c4.854,0.1,9.695,0.21,14.551,0.31
			c4.854,0.099,9.695,0.207,14.551,0.307c0.109,1.186,0.229,2.383,0.34,3.568c0.121,1.187,0.23,2.384,0.352,3.569
			c-6.611,0-13.234,0-19.844,0c-6.611,0-13.225,0-19.834,0c0-9.147,0-18.307,0-27.454c0-9.149,0-18.308,0-27.455
			C2284.672,861.529,2291.108,861.529,2297.531,861.529z"/>
		<path fill="#FAFAFA" d="M2332.61,861.529c1.646,0,3.295,0,4.941,0c0,7.874,0,15.736,0,23.61c0,7.875,0,15.737,0,23.611
			c4.578,0,9.146,0,13.727,0s9.146,0,13.729,0c0,1.285,0,2.56,0,3.845c0,1.284,0,2.559,0,3.843c-6.229,0-12.443,0-18.67,0
			c-6.229,0-12.441,0-18.67,0c0-9.147,0-18.307,0-27.454c0-9.149,0-18.308,0-27.455
			C2329.315,861.529,2330.961,861.529,2332.61,861.529z"/>
		<path fill="#FEFDFB" d="M2377.635,861.529c1.646,0,3.295,0,4.941,0c0,7.874,0,15.736,0,23.61c0,7.875,0,15.737,0,23.611
			c4.393,0,8.785,0,13.18,0c4.393,0,8.785,0,13.178,0c0,1.285,0,2.56,0,3.845c0,1.284,0,2.559,0,3.843c-6.039,0-12.08,0-18.121,0
			c-6.039,0-12.08,0-18.119,0c0-9.147,0-18.307,0-27.454c0-9.149,0-18.308,0-27.455
			C2374.34,861.529,2375.987,861.529,2377.635,861.529z"/>
		<path fill="#FDFDFD" d="M2421.563,861.529c1.648,0,3.295,0,4.941,0c0,9.147,0,18.306,0,27.455c0,9.147,0,18.307,0,27.454
			c-1.646,0-3.293,0-4.941,0c-1.646,0-3.295,0-4.941,0c0-9.147,0-18.307,0-27.454c0-9.149,0-18.308,0-27.455
			C2418.268,861.529,2419.916,861.529,2421.563,861.529z"/>
		
			<radialGradient id="SVGID_3_" cx="2662.8225" cy="677.0447" r="171.2377" fx="2569.365" fy="790.1928" gradientTransform="matrix(1 0 0 -1 -96.2349 1437.3589)" gradientUnits="userSpaceOnUse">
			<stop  offset="0" style="stop-color:#F9FBF8"/>
			<stop  offset="0.0299" style="stop-color:#F9FBF8"/>
			<stop  offset="0.515" style="stop-color:#FFFFFF"/>
			<stop  offset="1" style="stop-color:#FEFEFE"/>
		</radialGradient>
		<path fill="url(#SVGID_3_)" d="M2436.389,885.688c3.381-11.432,8.236-18.263,15.846-22.304c3.492-1.846,6.393-2.373,13.256-2.384
			c7.688-0.021,9.443,0.363,14.068,3.087c6.215,3.646,7.225,5.523,4.568,8.468c-2.494,2.746-4.24,2.711-8.139-0.165
			c-3.832-2.844-11.684-3.867-16.758-2.186c-7.193,2.372-12.957,10.96-12.957,19.271c0,5.812,4.885,14.136,9.98,17.002
			c3.699,2.086,5.656,2.438,11.17,2.044c5.379-0.397,6.973-0.957,8.137-2.879c0.494-0.792,0.979-1.592,1.461-2.383
			c0.088,0.791,0.186,1.58,0.275,2.372c0.217,1.933-0.748,2.767-5.217,4.459c-3.02,1.13-4.877,2.316-4.119,2.612
			c0.758,0.297,1.373,0.979,1.373,1.507c0,0.537,0.988,1.261,4.393,2.228c-19.525,0.507-21.844-0.042-28.619-6.818
			c-4.525-4.537-7.59-11.39-8.227-18.439C2436.717,889.346,2436.553,887.522,2436.389,885.688z"/>
		<path fill="#FDFDFD" d="M2477.022,903.26c0-4.756,0-9.521,0-14.276c1.471,0,2.953,0,4.436,0c1.473,0,2.943,0,4.426,0
			c-0.109,3.755-0.207,7.501-0.307,11.256c-0.109,3.756-0.219,7.501-0.318,11.257c-1.922,0.823-3.844,1.647-5.766,2.471
			s-3.844,1.647-5.766,2.471c-3.404-0.967-4.393-1.69-4.393-2.228c0-0.528-0.615-1.21-1.373-1.507
			c-0.758-0.296,1.1-1.482,4.119-2.612c4.469-1.692,5.434-2.526,5.217-4.459C2477.207,904.841,2477.11,904.052,2477.022,903.26z"/>
		<path fill="#FAFAFA" d="M2517.172,861.529c6.424,0,12.859,0,19.283,0c-0.109,1.372-0.23,2.745-0.34,4.118
			c-0.111,1.372-0.23,2.745-0.34,4.118c-4.668,0.098-9.336,0.208-14.002,0.307c-4.668,0.099-9.334,0.21-14.002,0.309
			c0,2.372,0,4.732,0,7.104c0,2.372,0,4.734,0,7.107c4.205,0,8.422,0,12.629,0c4.205,0,8.424,0,12.629,0c0,1.284,0,2.559,0,3.843
			c0,1.285,0,2.559,0,3.844c-4.205,0-8.424,0-12.629,0c-4.207,0-8.424,0-12.629,0c0,2.745,0,5.491,0,8.236c0,2.746,0,5.491,0,8.236
			c4.941,0,9.883,0,14.826,0c4.941,0,9.883,0,14.824,0c0,1.285,0,2.56,0,3.845c0,1.284,0,2.559,0,3.843c-6.588,0-13.178,0-19.768,0
			s-13.178,0-19.768,0c0-9.147,0-18.307,0-27.454c0-9.149,0-18.308,0-27.455C2504.311,861.529,2510.746,861.529,2517.172,861.529z"
			/>
		<path fill="#FDFDFD" d="M2551.424,861.529c4.02,0,4.426,0.405,17.152,17c7.184,9.356,13.729,17.571,14.553,18.251
			c1.273,1.056,1.516-1.625,1.516-17c0-6.084,0-12.166,0-18.251c1.648,0,3.295,0,4.941,0c1.648,0,3.295,0,4.943,0
			c0,9.147,0,18.306,0,27.455c0,9.147,0,18.307,0,27.454c-1.418,0-2.834,0-4.262,0c-4.207,0-4.426-0.219-18.396-18.239
			c-4.711-6.075-9.422-12.158-14.133-18.243c-0.1,6.085-0.197,12.168-0.297,18.243c-0.109,6.082-0.209,12.157-0.307,18.239
			c-1.637,0-3.273,0-4.908,0c-1.648,0-3.285,0-4.92,0c0-9.147,0-18.307,0-27.454c0-9.149,0-18.308,0-27.455
			C2548.68,861.529,2550.051,861.529,2551.424,861.529z"/>
		<path fill="#FCFCFA" d="M2681.901,861.529c6.424,0,12.859,0,19.283,0c-0.109,1.372-0.23,2.745-0.34,4.118
			c-0.109,1.372-0.23,2.745-0.34,4.118c-4.666,0.098-9.334,0.208-14.002,0.307s-9.334,0.21-14.002,0.309c0,2.372,0,4.732,0,7.104
			c0,2.372,0,4.734,0,7.107c4.207,0,8.424,0,12.629,0c4.207,0,8.424,0,12.631,0c0,1.284,0,2.559,0,3.843c0,1.285,0,2.559,0,3.844
			c-4.207,0-8.424,0-12.631,0c-4.205,0-8.422,0-12.629,0c0,2.745,0,5.491,0,8.236c0,2.746,0,5.491,0,8.236c4.943,0,9.885,0,14.826,0
			s9.883,0,14.824,0c0,1.285,0,2.56,0,3.845c0,1.284,0,2.559,0,3.843c-6.588,0-13.178,0-19.766,0c-6.59,0-13.18,0-19.768,0
			c0-9.147,0-18.307,0-27.454c0-9.149,0-18.308,0-27.455C2669.041,861.529,2675.477,861.529,2681.901,861.529z"/>
		
			<linearGradient id="SVGID_4_" gradientUnits="userSpaceOnUse" x1="2795.2834" y1="702.0925" x2="2830.019" y2="701.0862" gradientTransform="matrix(1 0 0 -1 -96.2349 1437.3589)">
			<stop  offset="0" style="stop-color:#02B5D7"/>
			<stop  offset="0.05" style="stop-color:#00B8DA"/>
			<stop  offset="0.2" style="stop-color:#00BCE1"/>
			<stop  offset="0.9" style="stop-color:#00BBE0"/>
			<stop  offset="1" style="stop-color:#00B8DC"/>
		</linearGradient>
		<path fill="url(#SVGID_4_)" d="M2700.272,662.141c0.783-0.296,8.82-0.407,17.846-0.242c5.482,0.099,10.951,0.208,16.432,0.307
			c0.098,24.623,0.186,49.255,0.285,73.876c0.088,24.631,0.186,49.253,0.273,73.887c-5.951-0.099-11.893-0.2-17.846-0.309
			c-5.951-0.099-11.902-0.198-17.855-0.297c-0.1-24.445-0.186-48.89-0.287-73.337
			C2698.889,676.637,2699.11,662.591,2700.272,662.141z"/>
		<path fill="#FBFDFD" d="M1437.031,890.082c3.658,0,7.318,0,10.98,0c0,1.46,0,2.933,0,4.393c0,1.461,0,2.933,0,4.393
			c-3.662,0-7.322,0-10.98,0c-3.662,0-7.324,0-10.984,0c0-1.46,0-2.932,0-4.393c0-1.46,0-2.933,0-4.393
			C1429.707,890.082,1433.369,890.082,1437.031,890.082z"/>
		
			<radialGradient id="SVGID_5_" cx="916.9695" cy="1334.3044" r="73.6532" fx="863.7417" fy="1327.5892" gradientTransform="matrix(-0.9524 -0.305 -0.4943 1.5436 2770.3462 -907.3148)" gradientUnits="userSpaceOnUse">
			<stop  offset="0" style="stop-color:#FDFDFD"/>
			<stop  offset="0.0777" style="stop-color:#FDFDFD"/>
			<stop  offset="0.1289" style="stop-color:#FEFEFE"/>
			<stop  offset="0.1802" style="stop-color:#FDFDFD"/>
			<stop  offset="0.2314" style="stop-color:#F8FBFA"/>
			<stop  offset="0.3339" style="stop-color:#FEFEFE"/>
			<stop  offset="0.3851" style="stop-color:#FEFEFE"/>
			<stop  offset="0.4364" style="stop-color:#F5F8F7"/>
			<stop  offset="0.5388" style="stop-color:#F7FBFC"/>
			<stop  offset="0.5901" style="stop-color:#F7FBFC"/>
			<stop  offset="0.6413" style="stop-color:#F6FAFB"/>
			<stop  offset="0.6926" style="stop-color:#FAFCFC"/>
			<stop  offset="0.795" style="stop-color:#FEFEFE"/>
			<stop  offset="0.8975" style="stop-color:#FDFDFD"/>
			<stop  offset="0.9488" style="stop-color:#FFFFFF"/>
			<stop  offset="1" style="stop-color:#FDFDFD"/>
		</radialGradient>
		<path fill="url(#SVGID_5_)" d="M1266.224,861.529c1.634,0,3.271,0,4.906,0c-0.215,4.667-0.43,9.334-0.645,14.001
			c-0.771,16.727,0.612,25.929,4.474,29.796c3.535,3.523,12.526,4.523,16.633,1.834c5.035-3.306,5.967-7.589,5.967-27.479
			c0-6.051,0-12.103,0-18.152c1.687,0,3.374,0,5.062,0c1.687,0,3.375,0,5.062,0c-0.148,6.677-0.297,13.364-0.446,20.041
			c-0.394,17.702-0.714,20.56-2.749,24.436c-4.157,7.93-10.557,11.553-20.348,11.51c-10.478-0.045-19.175-6.107-21.675-15.111
			c-0.625-2.252-1.137-12.364-1.141-22.48c-0.001-6.128-0.004-12.267-0.006-18.395
			C1262.953,861.529,1264.589,861.529,1266.224,861.529z"/>
		
			<linearGradient id="SVGID_6_" gradientUnits="userSpaceOnUse" x1="1478.3264" y1="522.2458" x2="1472.3776" y2="578.1109" gradientTransform="matrix(1 0 0 -1 -96.2349 1437.3589)">
			<stop  offset="0" style="stop-color:#FCFCFA"/>
			<stop  offset="0.1364" style="stop-color:#FDFDFD"/>
			<stop  offset="0.3182" style="stop-color:#FAFAFA"/>
			<stop  offset="0.4545" style="stop-color:#FAFCFA"/>
			<stop  offset="0.6364" style="stop-color:#FEFEFE"/>
			<stop  offset="1" style="stop-color:#FDFDFD"/>
		</linearGradient>
		<path fill="url(#SVGID_6_)" d="M1376.629,861.529c7.32,0,14.642,0,21.965,0c0,1.46,0,2.933,0,4.393c0,1.461,0,2.932,0,4.394
			c-2.746,0-5.492,0-8.236,0c-2.746,0-5.492,0-8.237,0c-0.088,1.734-0.177,3.48-0.265,5.215c-0.146,2.866-0.27,13.123-0.275,22.789
			c-0.002,5.854-0.006,11.717-0.009,17.57c-1.558,0.11-3.112,0.219-4.667,0.341c-1.558,0.109-3.113,0.22-4.668,0.328
			c0-7.697,0-15.406,0-23.115c0-7.71,0-15.42,0-23.128c-2.35,0-4.699,0-7.049,0c-9.389,0-10.522-0.55-10.522-5.063
			c0-1.242,0-2.48,0-3.723C1361.986,861.529,1369.307,861.529,1376.629,861.529z"/>
		
			<radialGradient id="SVGID_7_" cx="1632.4973" cy="540.3918" r="37.059" fx="1636.9342" fy="549.5839" gradientTransform="matrix(1 0 0 -1 -96.2349 1437.3589)" gradientUnits="userSpaceOnUse">
			<stop  offset="0" style="stop-color:#FAFAFA"/>
			<stop  offset="0.3651" style="stop-color:#FAFAFA"/>
			<stop  offset="0.4025" style="stop-color:#FEFEFE"/>
			<stop  offset="0.4398" style="stop-color:#FEFEFE"/>
			<stop  offset="0.5892" style="stop-color:#F8FBFA"/>
			<stop  offset="0.7012" style="stop-color:#F9FBF8"/>
			<stop  offset="0.7759" style="stop-color:#F8FBFA"/>
			<stop  offset="0.888" style="stop-color:#FEFEFE"/>
			<stop  offset="0.9627" style="stop-color:#FCFEFE"/>
			<stop  offset="1" style="stop-color:#FCFCFC"/>
		</radialGradient>
		<path fill="url(#SVGID_7_)" d="M1509.586,883.789c1.363-7.062,4.143-12.057,9.006-16.22c10.654-9.116,25.961-9.413,36.967-0.704
			c2.602,2.055,2.623,2.208,0.801,4.977c-2.086,3.196-5.238,3.722-7.313,1.218c-4.207-5.072-17.473-4.698-23.592,0.67
			c-13.584,11.938-5.568,35.021,12.17,35.021c3.205,0,7.082-0.57,8.619-1.273c2.658-1.208,2.803-1.725,2.803-9.884
			c0-2.866,0-5.745,0-8.609c1.471,0,2.953,0,4.436,0c1.473,0,2.943,0,4.426,0c-0.109,3.744-0.209,7.489-0.309,11.234
			c-0.109,3.745-0.219,7.49-0.316,11.246c-1.648,0.912-3.295,1.834-4.943,2.756c-4.262,2.383-6.303,2.768-14.824,2.768
			c-10.951-0.012-14.189-1.187-20.385-7.368C1510.774,903.26,1507.797,893.046,1509.586,883.789z"/>
		
			<linearGradient id="SVGID_8_" gradientUnits="userSpaceOnUse" x1="1769.2454" y1="549.8909" x2="1813.3813" y2="547.7973" gradientTransform="matrix(1 0 0 -1 -96.2349 1437.3589)">
			<stop  offset="0" style="stop-color:#FEFEFE"/>
			<stop  offset="0.35" style="stop-color:#FDFDFD"/>
			<stop  offset="0.4" style="stop-color:#FEFEFE"/>
			<stop  offset="0.45" style="stop-color:#FDFDFD"/>
			<stop  offset="0.55" style="stop-color:#FCFEFE"/>
			<stop  offset="0.6" style="stop-color:#FAFCFC"/>
			<stop  offset="0.95" style="stop-color:#F9FBF8"/>
			<stop  offset="1" style="stop-color:#FAFAFA"/>
		</linearGradient>
		<path fill="url(#SVGID_8_)" d="M1696.182,861.529c7.314,0,14.629,0,21.941,0c0.232,0.911,0.463,1.834,0.693,2.745
			c1.307,5.228,0.119,6.041-8.852,6.041c-2.758,0-5.514,0-8.27,0c0,7.686,0,15.373,0,23.061s0,15.375,0,23.063
			c-1.646,0-3.295,0-4.941,0c-1.648,0-3.295,0-4.941,0c0-7.631,0-15.275,0-22.907c0-7.645,0-15.276,0-22.921
			c-1.705-0.229-3.396-0.462-5.098-0.69c-2.799-0.384-6.754-0.703-8.785-0.703c-3.48,0-3.689-0.209-3.689-3.845
			c0-1.284,0-2.558,0-3.843C1681.553,861.529,1688.867,861.529,1696.182,861.529z"/>
		
			<radialGradient id="SVGID_9_" cx="707.3235" cy="1686.6765" r="35.1084" fx="709.7296" fy="1676.7817" gradientTransform="matrix(-0.9581 0.2866 0.3181 1.0635 1911.5311 -1104.7463)" gradientUnits="userSpaceOnUse">
			<stop  offset="0" style="stop-color:#FCFCFC"/>
			<stop  offset="0.4175" style="stop-color:#FCFCFC"/>
			<stop  offset="0.4591" style="stop-color:#FCFCFC"/>
			<stop  offset="0.5007" style="stop-color:#FEFEFE"/>
			<stop  offset="0.9168" style="stop-color:#F9F9F9"/>
			<stop  offset="1" style="stop-color:#F9F9F9"/>
		</radialGradient>
		<path fill="url(#SVGID_9_)" d="M1760.725,861.539c19.832,0,25.793,2.176,32.625,11.905c2.998,4.251,3.371,5.722,3.689,14.255
			c0.309,8.654,0.055,10.07-2.744,15.562c-2.328,4.523-4.447,6.853-8.5,9.335c-5.283,3.228-5.754,3.305-22.238,3.667
			c-5.613,0.12-11.225,0.254-16.836,0.374c0-9.181,0-18.374,0-27.554c0-9.181,0-18.374,0-27.554
			C1751.389,861.529,1756.057,861.529,1760.725,861.539z M1786.86,882.043c-3.162-8.873-8.379-11.728-21.438-11.728
			c-2.941,0-5.875,0-8.816,0c0,6.401,0,12.815,0,19.218s0,12.815,0,19.218c2.107-0.01,4.205-0.021,6.314-0.021
			c12.945-0.056,18.932-2.91,23.063-10.981C1788.781,892.257,1789.024,888.094,1786.86,882.043z"/>
		
			<linearGradient id="SVGID_10_" gradientUnits="userSpaceOnUse" x1="2047.1965" y1="520.5793" x2="2050.168" y2="577.1263" gradientTransform="matrix(1 0 0 -1 -96.2349 1437.3589)">
			<stop  offset="0" style="stop-color:#FCFCFC"/>
			<stop  offset="0.0455" style="stop-color:#FEFEFE"/>
			<stop  offset="0.1364" style="stop-color:#FEFDFB"/>
			<stop  offset="0.1818" style="stop-color:#F9F9F9"/>
			<stop  offset="0.2727" style="stop-color:#F5F8F7"/>
			<stop  offset="0.3636" style="stop-color:#F6F8F5"/>
			<stop  offset="0.4091" style="stop-color:#F6F8F5"/>
			<stop  offset="0.5455" style="stop-color:#FEFEFE"/>
			<stop  offset="0.5909" style="stop-color:#FFFFFD"/>
			<stop  offset="0.7273" style="stop-color:#FEFEFE"/>
			<stop  offset="0.8636" style="stop-color:#FCFCFC"/>
			<stop  offset="0.9545" style="stop-color:#FEFEFE"/>
			<stop  offset="1" style="stop-color:#FCFCFC"/>
		</linearGradient>
		<path fill="url(#SVGID_10_)" d="M1932.514,906.237c0.373-1.022,0.736-2.044,1.109-3.064c1.295,0.757,2.58,1.517,3.877,2.273
			c11.477,6.775,25.566,4.491,25.566-4.14c0-3.329-3.141-5.272-13.662-8.458c-12.883-3.886-17.088-7.73-17.088-15.593
			c0-8.029,4.381-13.376,12.936-15.804c5.754-1.627,14.793-0.803,20.361,1.844c3.613,1.725,4.074,2.361,3.471,4.779
			c-1.076,4.404-2.219,4.876-7.063,2.932c-6.963-2.779-14.936-2.382-18.23,0.899c-5.6,5.613-2.668,9.161,10.883,13.157
			c11.555,3.416,16.408,6.962,17.596,12.85c1.482,7.413-3.295,15.682-10.652,18.459c-7.184,2.714-23.449,0.396-28.479-4.062
			C1930.975,910.387,1930.975,910.431,1932.514,906.237z"/>
		
			<radialGradient id="SVGID_11_" cx="2126.0266" cy="549.2649" r="29.3514" fx="2109.2021" fy="547.1564" gradientTransform="matrix(1 0 0 -1 -96.2349 1437.3589)" gradientUnits="userSpaceOnUse">
			<stop  offset="0" style="stop-color:#FEFEFE"/>
			<stop  offset="0.6078" style="stop-color:#FEFEFE"/>
			<stop  offset="0.6863" style="stop-color:#F7FAF9"/>
			<stop  offset="1" style="stop-color:#F8FBFA"/>
		</radialGradient>
		<path fill="url(#SVGID_11_)" d="M2003.293,878.726c2.152-7.018,9.467-14.188,17.043-16.704
			c14.08-4.678,30.102,2.252,35.582,15.375c2.635,6.337,2.371,18.923-0.518,24.6c-5.49,10.764-15.66,16.265-28.201,15.255
			C2008.235,915.735,1997.319,898.154,2003.293,878.726z M2047.133,881.845c-4.24-11.553-17.057-15.892-27.742-9.378
			c-10.607,6.479-10.586,25.555,0.033,33.439c4.535,3.351,16.408,3.273,21.207-0.154
			C2047.1,901.141,2050.129,890.005,2047.133,881.845z"/>
		
			<radialGradient id="SVGID_12_" cx="-38.6125" cy="958.5291" r="43.6247" fx="-28.5199" fy="961.9435" gradientTransform="matrix(-0.8068 -0.5909 -1.2971 1.7709 3451.1863 -806.8514)" gradientUnits="userSpaceOnUse">
			<stop  offset="0" style="stop-color:#F5F8F7"/>
			<stop  offset="0.1312" style="stop-color:#F5F8F7"/>
			<stop  offset="0.1746" style="stop-color:#F6FAFB"/>
			<stop  offset="0.3484" style="stop-color:#FBFDFD"/>
			<stop  offset="0.4787" style="stop-color:#FDFDFD"/>
			<stop  offset="0.5222" style="stop-color:#FEFEFE"/>
			<stop  offset="1" style="stop-color:#FEFEFE"/>
		</radialGradient>
		<path fill="url(#SVGID_12_)" d="M2248.662,861.529c7.348,0,14.684,0,22.029,0c-0.109,1.372-0.23,2.745-0.34,4.118
			c-0.109,1.372-0.23,2.745-0.34,4.118c-2.834,0.109-5.68,0.208-8.512,0.319c-2.832,0.109-5.678,0.219-8.51,0.317
			c0,7.677,0,15.354,0,23.019c0,7.676,0,15.342,0,23.018c-1.648,0-3.295,0-4.943,0c-1.646,0-3.293,0-4.941,0
			c0-7.643,0-15.275,0-22.918c0-7.645,0-15.276,0-22.92c-1.373-0.22-2.744-0.452-4.119-0.681c-2.262-0.373-5.975-0.682-8.236-0.693
			c-3.975-0.01-4.117-0.142-4.117-3.854c0-1.284,0-2.558,0-3.843C2233.981,861.529,2241.315,861.529,2248.662,861.529z"/>
		
			<linearGradient id="SVGID_13_" gradientUnits="userSpaceOnUse" x1="2723.9426" y1="520.8582" x2="2726.9167" y2="577.3498" gradientTransform="matrix(1 0 0 -1 -96.2349 1437.3589)">
			<stop  offset="0" style="stop-color:#FAFAFA"/>
			<stop  offset="0.0455" style="stop-color:#FDFDFD"/>
			<stop  offset="0.1818" style="stop-color:#F8FBFA"/>
			<stop  offset="0.2273" style="stop-color:#FAF9F7"/>
			<stop  offset="0.2727" style="stop-color:#FBF9F5"/>
			<stop  offset="0.3636" style="stop-color:#F7FAF9"/>
			<stop  offset="0.4545" style="stop-color:#FAFCFA"/>
			<stop  offset="0.5455" style="stop-color:#FEFEFE"/>
			<stop  offset="0.7273" style="stop-color:#FFFFFF"/>
			<stop  offset="0.7727" style="stop-color:#FFFFFF"/>
			<stop  offset="0.9545" style="stop-color:#FEFEFE"/>
			<stop  offset="1" style="stop-color:#FCFCFC"/>
		</linearGradient>
		<path fill="url(#SVGID_13_)" d="M2605.973,880.406c2.029-6.216,5.621-11.354,10.113-14.429
			c10.707-7.338,24.906-7.324,33.582,0.031c1.209,1.022,2.404,2.032,3.613,3.053c-0.943,0.968-1.889,1.922-2.834,2.89
			c-0.943,0.965-1.898,1.922-2.844,2.887c-1.756-0.933-3.525-1.877-5.281-2.81c-6.557-3.481-11.973-3.569-18.188-0.285
			c-12.793,6.776-13.047,27.213-0.418,34.582c5.777,3.369,14.795,2.976,20.021-0.89c3.82-2.823,5.963-2.428,8.369,1.548
			c0.965,1.581,0.516,2.493-2.439,4.985c-8.951,7.567-24.445,7.37-34.658-0.427C2606.838,905.313,2602.6,890.73,2605.973,880.406z"
			/>
	</g>
</g>
</svg>
