<?xml version="1.0" encoding="utf-8"?>
<!-- Generator: Adobe Illustrator 16.0.0, SVG Export Plug-In . SVG Version: 6.00 Build 0)  -->
<!DOCTYPE svg PUBLIC "-//W3C//DTD SVG 1.1//EN" "http://www.w3.org/Graphics/SVG/1.1/DTD/svg11.dtd">
<svg version="1.1" xmlns="http://www.w3.org/2000/svg" xmlns:xlink="http://www.w3.org/1999/xlink" x="0px" y="0px" width="2500px"
	 height="2500px" viewBox="0 0 2500 2500" enable-background="new 0 0 2500 2500" xml:space="preserve">
<g id="Layer_2">
</g>
<g id="Layer_1">
	<g>
		<path fill="#02B4DC" d="M916.433,1197.44c-3.193,5.683-6.383,11.369-9.577,17.049c-121.784,0-243.59,0-365.372,0
			c-200.934,0-365.933-0.931-366.639-2.08c-1.779-2.879,2.706-68.007,7.322-106.327c10.433-86.575,34.536-179.649,67.195-259.447
			c18.763-45.824,48.411-107.205,51.749-107.133c1.46,0.028,21.828,11.38,45.263,25.227c32.544,19.209,42.559,26.26,42.29,29.785
			c-0.171,2.539-8.038,21.243-17.466,41.567c-23.436,50.512-36.761,86.904-52.645,143.774
			c-19.491,69.623-27.627,112.306-21.024,109.991c2.12-0.746,44.388-31.997,208.339-154.104
			c19.537-14.553,39.1-29.104,58.637-43.664c12.985,7.731,25.946,15.467,38.931,23.199
			c88.992,53.027,170.286,100.541,211.288,123.484c10.354,5.793,20.707,11.588,31.061,17.38c2.483,2.459,4.967,4.911,7.453,7.366
			c4.091,4.053,8.476,6.794,12.035,4.815c12.984,38.979,25.995,77.958,38.978,116.934c0.899,2.918,1.802,5.833,2.703,8.751
			c1.753,5.719,3.436,7.83,7.042,3.432C914.798,1197.44,915.627,1197.44,916.433,1197.44z"/>
		<path fill="#FFFFFF" d="M539.607,1287.575c122.197,0,244.396,0,366.566,0c14.448,25.378,28.894,50.755,43.315,76.129
			c23.826,41.874,55.204,96.156,69.699,120.627c14.496,24.471,26.361,46.086,26.361,48.038c0,1.95-5.361,12.623-11.892,23.719
			c-6.552,11.096-31.034,53.608-54.423,94.471c-42.632,74.522-126.484,219.478-179.642,310.608
			c-15.639,26.799-31.205,53.659-34.617,59.688c-34.399,60.93-81.366,139.55-83.974,140.549
			c-4.434,1.7-74.497-47.783-112.452-79.433c-38.393-32.003-101.148-93.042-130.21-126.669
			c-31.186-36.088-95.009-122.337-97.374-131.582c-0.805-3.145,88.188-56.544,91.16-54.703c1.121,0.689,7.674,9.673,14.57,19.966
			c19.146,28.579,52.181,72.665,69.672,93.008c41.099,47.851,115.424,118.388,117.009,111.066
			c0.415-1.923-0.977-19.747-3.095-39.616c-4.068-38.537-18.514-193.392-23.411-251.28c-2.51-29.462-2.436-35.37,0.438-37.978
			c3.947-3.618,65.923-40.402,178.791-106.139c87.285-50.847,104.191-61.115,102.827-62.475c-0.485-0.49-22.484-5.791-48.891-11.777
			c-16.007-3.63-32.01-7.261-48.017-10.886c-39.563,23.243-79.127,46.486-118.691,69.73
			c-65.262,38.354-150.456,88.347-189.31,111.102c-38.858,22.749-95.133,56.093-125.074,74.101
			c-29.913,18.012-54.762,32.379-55.2,31.937c-3.704-3.738-33.401-64.274-46.044-93.839
			c-47.647-111.515-74.077-224.673-83.104-355.829c-0.52-7.508-1.035-15.021-1.552-22.533
			C295.24,1287.575,417.41,1287.575,539.607,1287.575z M311.66,1391.438c-18.662-3.082-18.88-3.054-18.88,2.113
			c0,27.971,37.369,173.445,54.276,211.311c0.975,2.228,1.974,4.45,2.974,6.676c24.775-22.028,49.524-44.056,74.302-66.084
			c97.785-86.97,127.313-114.527,124.974-116.616c-1.072-0.941-11.816-3.013-23.873-4.585
			C504.697,1421.529,352.271,1398.137,311.66,1391.438z"/>
		<path fill="#FFFFFF" d="M860.401,1056.142c-22.827-65.132-31.33-85.816-33.597-87.978
			c-5.943-5.628-199.909-120.712-391.51-232.293c-52.256-30.433-96.008-56.296-97.253-57.473
			c-2.701-2.584,6.578-17.991,32.888-54.671c60.32-84.051,125.851-153.317,205.537-217.221
			c30.818-24.713,98.179-71.46,102.951-71.46c2.412,0,9.939,12.79,109.091,185.147c29.648,51.584,83.925,145.863,120.589,209.507
			c36.664,63.644,82.878,143.921,102.708,178.392c12.009,20.894,24.021,41.786,36.03,62.678c-4.75,8.343-9.502,16.683-14.276,25.023
			c-7.844,13.768-37.394,64.765-65.703,113.336c-17.125,29.438-34.276,58.876-51.424,88.312c-0.805,0-1.635,0-2.438,0
			c-3.24-4.06-6.507-8.119-9.745-12.183c-12.983-38.977-25.994-77.955-38.978-116.934
			C863.638,1064.266,862.033,1060.206,860.401,1056.142z M510.105,620.072c-10.889,12.732-19.829,23.826-19.902,24.657
			c-0.049,0.83,16.079,7.301,35.837,14.378c19.755,7.078,45.798,16.64,57.857,21.256c12.058,4.617,38.905,14.231,59.686,21.373
			c20.778,7.14,51.183,17.861,67.604,23.83c16.417,5.962,29.842,10.704,29.842,10.537c0-2.26-35.374-99.933-77.933-215.179
			c-4.263-11.529-8.503-23.061-12.765-34.592c-6.31,4.883-12.595,9.762-18.905,14.645
			C607.674,519.391,536.27,589.486,510.105,620.072z"/>
		<path fill="#FFFFFF" d="M760.566,287.519c66.946-33.712,158.08-67.704,227.731-84.924c70.33-17.392,121.733-25.212,208.899-31.784
			c5.481-0.412,10.963-0.826,16.443-1.24c0,17.786,0,35.57,0,53.355c0,17.786,0,35.569,0,53.352
			c-3.461,0.418-6.894,0.841-10.354,1.261c-5.702,0.691-19.659,1.889-31.061,2.667c-50.356,3.431-146.121,22.634-200.98,40.293
			c-17.42,5.608-35.496,11.278-40.197,12.597c-4.703,1.321-9.381,3.219-10.453,4.216c-1.828,1.742,54.351,29.152,144.441,70.466
			c23.433,10.754,66.749,30.939,96.228,44.858c17.854,8.438,35.737,16.873,53.595,25.309c0.414,56.162,0.803,112.326,1.219,168.486
			c0.414,56.162,0.801,112.326,1.217,168.488c11.571-12.783,23.118-25.563,34.689-38.346c11.572-12.783,23.143-25.563,34.692-38.346
			c0.022-94.865,0.022-189.733,0.022-284.603c0-94.866,0.026-189.733,0.026-284.601c7.503,0.528,15.029,1.059,22.534,1.588
			c121.538,8.572,233.159,33.474,340.207,75.888c39.757,15.758,109.871,48.012,109.871,50.547c0,0.732-12.209,22.465-27.14,48.29
			c-14.936,25.829-33.718,58.471-41.732,72.539c-8.017,14.07-23.607,40.926-34.667,59.685
			c-11.061,18.758-37.103,63.705-57.907,99.883c-20.778,36.177-45.773,79.478-55.521,96.228
			c-9.764,16.748-25.579,44.154-35.174,60.902c-9.576,16.75-31.427,54.572-48.553,84.049
			c-17.127,29.477-38.929,67.026-48.431,83.436c-5.775,9.95-11.549,19.9-17.321,29.843c-47.237,0-94.499,0-141.761,0
			c-47.235,0-94.497,0-141.758,0c-6.675-11.57-13.375-23.143-20.074-34.715c-11.034-19.092-34.033-58.831-51.11-88.31
			c-17.076-29.475-56.59-97.991-87.798-152.258c-31.232-54.264-74.838-129.907-96.934-168.094
			c-22.097-38.186-46.75-80.94-54.74-95.01c-8.015-14.068-23.705-41.115-34.91-60.103c-11.182-18.986-20.341-35.142-20.341-35.9
			C743.466,296.749,751.161,292.256,760.566,287.519z M1400.271,287.581c-9.378-1.59-9.452-1.536-8.013,5.269
			c7.552,35.324,17.517,85.52,24.579,123.806c4.705,25.458,12.013,64.924,16.201,87.701c9.015,48.792,8.868,48.249,12.037,46.281
			c1.361-0.84,30.204-36.264,64.092-78.72c91.112-114.167,99.128-124.39,99.128-126.574c0-2.079-9.963-5.632-66.995-23.871
			C1512.386,312.223,1432.626,293.058,1400.271,287.581z"/>
		<path fill="#FFFFFF" d="M810.019,2089.063c35.277-60.96,85.315-147.565,111.211-192.453
			c25.896-44.882,64.265-111.207,85.238-147.386c20.976-36.178,52.865-91.271,70.821-122.437
			c10.89-18.887,21.78-37.77,32.668-56.658c47.091,0.209,94.182,0.419,141.294,0.626c47.092,0.21,94.183,0.421,141.275,0.629
			c12.669,21.927,25.359,43.851,38.053,65.775c33.837,58.506,76.272,131.695,234.526,404.4
			c79.006,136.148,91.279,158.278,89.209,160.885c-4.311,5.381-95.665,47.85-132.985,61.803
			c-94.89,35.471-210.971,60.568-301.106,65.072c-11.161,0.563-22.343,1.117-33.498,1.657c0-17.976,0-35.959,0-53.963
			c0-17.977,0-35.981,0-53.961c2.241-0.024,4.456-0.047,6.701-0.073c19.752-0.218,86.674-7.817,116.834-13.271
			c61.417-11.111,161.881-38.967,174.891-48.479c3.849-2.808,3.705-3.362-1.826-6.984c-3.313-2.17-17.953-9.354-32.548-15.968
			c-14.593-6.614-46.261-21.093-70.38-32.175c-24.117-11.082-77.274-35.284-118.151-53.793
			c-24.779-11.215-49.527-22.431-74.303-33.646c-0.418-55.384-0.803-110.769-1.218-166.153
			c-0.417-55.39-0.804-110.771-1.219-166.156c-11.574,11.987-23.145,23.971-34.714,35.952
			c-11.572,11.986-23.145,23.971-34.715,35.957c0,95.331,0,190.66,0,285.989c0,95.334,0,190.666,0,285.99c-3.85,0-7.725,0-11.572,0
			c-34.863,0-113.233-10.598-173.137-23.411c-83.416-17.81-164.295-45.311-235.526-80.05c-22.78-11.108-43.342-21.706-45.678-23.533
			C746.243,2200.181,750.943,2191.193,810.019,2089.063z M915.285,2128.045c-9.94,12.734-18.123,23.391-18.197,23.688
			c-0.878,3.476,74.181,29.485,114.354,39.626c30.4,7.676,87.115,19.512,93.498,19.512c5.603,0,5.138-5.428-4.606-53.798
			c-4.677-23.333-15.104-78.057-23.167-121.603c-17.541-94.83-16.614-90.656-19.295-89.009
			c-2.241,1.388-65.434,81.339-102.683,129.931C943.179,2092.073,925.225,2115.316,915.285,2128.045z"/>
		<path fill="#02B4DC" d="M1507.464,879.354c27.601-48.141,61.999-108.362,76.421-133.818
			c14.448-25.457,31.648-55.605,38.249-66.994c6.578-11.391,24.677-42.633,40.195-69.431
			c56.446-97.526,137.909-239.149,146.897-255.386c5.068-9.155,10.768-17.239,12.67-17.965
			c5.459-2.097,70.964,43.073,116.496,80.349c29.938,24.509,92.596,84.25,115.569,110.172
			c42.269,47.742,94.255,116.988,108.115,144.047c3.632,7.06,3.61,7.881-0.268,11.174c-6.335,5.39-81.952,48.197-85.14,48.197
			c-1.535,0-9.604-10.139-17.932-22.535c-47.288-70.401-96.934-127.403-162.613-186.667c-15.324-13.84-26.066-21.865-27.432-20.502
			c-1.365,1.365-0.339,16.958,2.634,39.845c6.21,48.028,31.74,279.189,31.74,287.421c0,5.572-7.16,10.42-68.819,46.526
			c-173.209,101.447-213.771,125.888-213.771,128.806c0,2.69,1.19,3.009,50.77,13.511c35.345,7.489,43.287,8.477,48.574,6.063
			c5.41-2.463,55.739-32.083,175.938-103.574c14.082-8.366,48.603-28.687,76.741-45.157c28.138-16.475,73.62-43.305,101.102-59.632
			c95.714-56.888,125.848-74.359,128.26-74.359c3.241,0,36.642,69.223,51.695,107.19c28.48,71.79,49.016,147.697,62.44,230.75
			c5.016,31.035,10.962,95.008,10.962,118.017c0,6.369,0,12.735,0,19.106c-121.954-0.203-243.907-0.409-365.86-0.619
			c-121.952-0.204-243.909-0.414-365.859-0.618c-2.413-4.057-4.825-8.117-7.262-12.179c-3.969-6.698-10.74-18.21-15.004-25.58
			c-4.263-7.37-13.791-23.811-21.171-36.542c-26.018-44.789-80.953-140.215-87.679-152.259c-3.727-6.699-6.798-13.897-6.82-16.003
			C1457.279,968.605,1479.839,927.495,1507.464,879.354z M1981.024,1046.398c-8.942,8.121-17.856,16.243-26.797,24.362
			c4.069,1.626,8.11,3.25,12.183,4.872c39.169,5.299,78.369,10.6,117.545,15.898c64.652,8.746,119.466,15.87,121.806,15.836
			c5.554-0.084,5.454-4.682-0.781-37.826c-12.45-66.255-44.803-176.62-51.769-176.62c-1.582,0-11.645,7.814-22.363,17.363
			C2088.068,948.396,2014.447,1015.29,1981.024,1046.398z"/>
		<path fill="#FFFFFF" d="M1477.645,1493.43c11.206-18.758,42.535-72.748,69.623-119.981c16.421-28.624,32.842-57.247,49.261-85.873
			c121.735,0,243.471,0,365.228,0c121.732,0,243.467,0,365.202,0c0,6.927,0,13.855,0,20.776c0,68.59-21.147,184.287-50.064,273.994
			c-19.22,59.637-71.646,175.403-79.417,175.403c-3.142,0-84.34-48.294-86.167-51.229c-0.729-1.191,4.752-14.878,12.203-30.42
			c31.646-66.07,54.422-128.776,70.384-193.635c10.01-40.793,16.222-73.098,14.008-73.051
			c-3.241,0.068-161.542,116.214-242.057,177.616c-8.721,6.647-17.443,13.294-26.164,19.94c-5.896-3.421-11.792-6.84-17.687-10.26
			c-9.743-5.642-51.695-30.23-93.23-54.644c-136.352-80.143-184.954-108.119-185.999-107.068
			c-0.559,0.565,4.701,19.429,11.69,41.915c7.018,22.481,13.525,43.618,14.496,46.966c1.925,6.585,14.35,14.479,129.361,82.088
			c34.179,20.082,130.405,76.833,213.866,126.104c50.578,29.865,101.15,59.728,151.746,89.588c-1.359,2.138-2.727,4.279-4.09,6.415
			c-27.993,43.961-76.908,107.757-113.914,148.566c-56.13,61.865-138.302,132.295-204.734,175.498
			c-17.686,11.499-19.464,12.166-22.166,8.219c-4.315-6.33-140.979-242.269-242.397-418.442
			c-48.601-84.408-95.327-165.272-103.854-179.694c-8.525-14.421-15.515-28.123-15.515-30.451
			C1457.257,1529.442,1466.437,1512.19,1477.645,1493.43z M1760.971,1759.375c-0.61,0.607,0.29,4.056,2.046,7.656
			c1.728,3.609,15.93,42.181,31.545,85.729c36.835,102.643,55.081,151.783,57.324,154.232c2.336,2.594,42.607-31.354,78.613-66.273
			c29.5-28.602,78.541-83.805,78.541-88.401c0-2.655-10.573-6.892-77.955-31.219c-21.438-7.741-65.29-23.569-97.447-35.179
			c-32.157-11.611-61.415-22.584-65.02-24.378C1765.01,1759.744,1761.576,1758.77,1760.971,1759.375z"/>
		<path fill="#02B4DC" stroke="#02B4DC" stroke-miterlimit="10" d="M845.784,1056.142c4.619,0,9.237,0,13.855,0
			c1.547,4.064,3.07,8.124,4.62,12.181c-3.375,1.979-7.53-0.762-11.409-4.815C850.493,1061.053,848.139,1058.601,845.784,1056.142z"
			/>
		<path fill="#E6F5F9" d="M913.995,1197.44c-3.605,4.398-5.288,2.288-7.042-3.432c-0.901-2.918-1.804-5.833-2.703-8.751
			C907.488,1189.321,910.755,1193.381,913.995,1197.44z"/>
	</g>
</g>
</svg>
